<?xml version="1.0" encoding="UTF-8"?>
<svg width="240" height="120" viewBox="0 0 240 120" xmlns="http://www.w3.org/2000/svg">
  <rect width="240" height="120" rx="18" fill="#0d4d2b"/>
  <circle cx="80" cy="60" r="34" fill="#f5d7a3"/>
  <path d="M72 36c-8 8-6 16 2 20-2 4-1 9 5 12h24c4-10-2-19-9-24 2-6-8-13-22-8z" fill="#d45f33"/>
  <path d="M112 84c8 10 20 16 34 16 21 0 38-17 38-38s-17-38-38-38c-14 0-26 7-34 18" fill="none" stroke="#f5d7a3" stroke-width="6" stroke-linecap="round"/>
  <text x="120" y="68" font-family="Inter, Arial, sans-serif" font-size="20" font-weight="600" fill="#ffffff">
    Union africaine
  </text>
</svg>
